<svg width="24" height="24" viewBox="0 0 24 24" fill="none" xmlns="http://www.w3.org/2000/svg">
<path d="M11.625 0C5.20312 0 0 5.20312 0 11.625C0 18.0469 5.20312 23.25 11.625 23.25C18.0469 23.25 23.25 18.0469 23.25 11.625C23.25 5.20312 18.0469 0 11.625 0ZM11.625 21C6.42188 21 2.25 16.8281 2.25 11.625C2.25 6.46875 6.42188 2.25 11.625 2.25C16.7812 2.25 21 6.46875 21 11.625C21 16.8281 16.7812 21 11.625 21ZM14.4844 16.125C14.7656 16.3125 15.0938 16.2656 15.2812 15.9844L16.1719 14.8125C16.3594 14.5312 16.3125 14.2031 16.0312 14.0156L12.9375 11.7188V5.0625C12.9375 4.78125 12.6562 4.5 12.375 4.5H10.875C10.5469 4.5 10.3125 4.78125 10.3125 5.0625V12.7969C10.3125 12.9375 10.3594 13.125 10.5 13.2188L14.4844 16.125Z" fill="#D9D9D9"/>
</svg>
